<svg width="40" height="40" viewBox="0 0 40 40" fill="none" xmlns="http://www.w3.org/2000/svg">
<path d="M32.8833 27.7715C33.7081 26.7505 34.1607 25.479 34.1667 24.1665C34.1667 22.6194 33.5521 21.1357 32.4581 20.0417C31.3642 18.9478 29.8804 18.3332 28.3333 18.3332C26.7862 18.3332 25.3025 18.9478 24.2085 20.0417C23.1146 21.1357 22.5 22.6194 22.5 24.1665C22.5059 25.479 22.9585 26.7505 23.7833 27.7715C22.2545 28.5562 20.9521 29.7193 20 31.1498C19.0479 29.7193 17.7455 28.5562 16.2167 27.7715C17.0415 26.7505 17.4941 25.479 17.5 24.1665C17.5 22.6194 16.8854 21.1357 15.7915 20.0417C14.6975 18.9478 13.2138 18.3332 11.6667 18.3332C10.1196 18.3332 8.63584 18.9478 7.54187 20.0417C6.44791 21.1357 5.83333 22.6194 5.83333 24.1665C5.83925 25.479 6.29186 26.7505 7.11666 27.7715C5.47761 28.609 4.1015 29.8826 3.13989 31.452C2.17828 33.0215 1.66849 34.8259 1.66666 36.6665C1.66666 37.1085 1.84226 37.5325 2.15482 37.845C2.46738 38.1576 2.8913 38.3332 3.33333 38.3332H36.6667C37.1087 38.3332 37.5326 38.1576 37.8452 37.845C38.1577 37.5325 38.3333 37.1085 38.3333 36.6665C38.3315 34.8259 37.8217 33.0215 36.8601 31.452C35.8985 29.8826 34.5224 28.609 32.8833 27.7715ZM11.6667 21.6665C12.1611 21.6665 12.6445 21.8131 13.0556 22.0878C13.4667 22.3625 13.7871 22.753 13.9764 23.2098C14.1656 23.6666 14.2151 24.1693 14.1186 24.6542C14.0222 25.1392 13.7841 25.5846 13.4344 25.9343C13.0848 26.2839 12.6393 26.522 12.1544 26.6185C11.6694 26.7149 11.1668 26.6654 10.71 26.4762C10.2531 26.287 9.86269 25.9665 9.58799 25.5554C9.31329 25.1443 9.16666 24.661 9.16666 24.1665C9.16666 23.5035 9.43006 22.8676 9.8989 22.3987C10.3677 21.9299 11.0036 21.6665 11.6667 21.6665ZM5.21 34.9998C5.57832 33.5673 6.4126 32.2979 7.5815 31.3915C8.75039 30.4852 10.1875 29.9933 11.6667 29.9933C13.1458 29.9933 14.5829 30.4852 15.7518 31.3915C16.9207 32.2979 17.755 33.5673 18.1233 34.9998H5.21ZM28.3333 21.6665C28.8278 21.6665 29.3111 21.8131 29.7223 22.0878C30.1334 22.3625 30.4538 22.753 30.643 23.2098C30.8322 23.6666 30.8818 24.1693 30.7853 24.6542C30.6888 25.1392 30.4507 25.5846 30.1011 25.9343C29.7515 26.2839 29.306 26.522 28.8211 26.6185C28.3361 26.7149 27.8334 26.6654 27.3766 26.4762C26.9198 26.287 26.5294 25.9665 26.2547 25.5554C25.9799 25.1443 25.8333 24.661 25.8333 24.1665C25.8333 23.5035 26.0967 22.8676 26.5656 22.3987C27.0344 21.9299 27.6703 21.6665 28.3333 21.6665ZM21.8767 34.9998C22.245 33.5673 23.0793 32.2979 24.2482 31.3915C25.4171 30.4852 26.8542 29.9933 28.3333 29.9933C29.8125 29.9933 31.2496 30.4852 32.4185 31.3915C33.5874 32.2979 34.4217 33.5673 34.79 34.9998H21.8767ZM10 3.33317V13.3332C10 13.7752 10.1756 14.1991 10.4882 14.5117C10.8007 14.8242 11.2246 14.9998 11.6667 14.9998H16.4417L18.72 17.7348C18.8764 17.9224 19.0721 18.0733 19.2933 18.1769C19.5145 18.2804 19.7558 18.3341 20 18.3341C20.2442 18.3341 20.4855 18.2804 20.7067 18.1769C20.9279 18.0733 21.1236 17.9224 21.28 17.7348L23.5583 14.9998H28.3333C28.7754 14.9998 29.1993 14.8242 29.5118 14.5117C29.8244 14.1991 30 13.7752 30 13.3332V3.33317C30 2.89114 29.8244 2.46722 29.5118 2.15466C29.1993 1.8421 28.7754 1.6665 28.3333 1.6665H11.6667C11.2246 1.6665 10.8007 1.8421 10.4882 2.15466C10.1756 2.46722 10 2.89114 10 3.33317ZM13.3333 4.99984H26.6667V11.6665H22.7783C22.5339 11.6661 22.2924 11.7196 22.0709 11.823C21.8494 11.9264 21.6533 12.0772 21.4967 12.2648L20 14.0632L18.5 12.2648C18.3437 12.0777 18.1482 11.9271 17.9273 11.8237C17.7064 11.7203 17.4655 11.6666 17.2217 11.6665H13.3333V4.99984Z" fill="white"/>
</svg>
