<svg width="50" height="50" viewBox="0 0 50 50" fill="none" xmlns="http://www.w3.org/2000/svg">
<path d="M27.4125 43.75H20.6563C20.145 43.75 19.7338 43.3388 19.7338 42.8275V27.4075H15.3463C14.8375 27.4075 14.4238 26.9925 14.4238 26.4862V19.2412C14.4238 18.7337 14.8375 18.3187 15.3463 18.3187H19.7338V16.42C19.7338 10.9075 23.8863 6.25 28.8025 6.25H34.6575C35.165 6.25 35.5788 6.66375 35.5788 7.1725V14.415C35.5788 14.9212 35.165 15.3375 34.6575 15.3375H28.8125C28.705 15.3638 28.3363 15.6737 28.3363 16.355V18.3162H34.6575C35.165 18.3162 35.5788 18.7312 35.5788 19.2387V26.4837C35.5788 26.99 35.165 27.405 34.6575 27.405H28.3363V42.825C28.335 43.3387 27.9225 43.75 27.4125 43.75ZM21.5788 41.9037H26.49V26.485C26.49 25.9725 26.9025 25.5625 27.4125 25.5625H33.7338V20.1625H27.4125C26.9025 20.1625 26.49 19.7525 26.49 19.2412V16.3562C26.49 14.6438 27.685 13.4925 28.8025 13.4925H33.7338V8.09625H28.8025C24.9538 8.09625 21.58 11.9862 21.58 16.42V19.2412C21.58 19.7525 21.1663 20.1625 20.6575 20.1625H16.27V25.5625H20.6575C21.1675 25.5625 21.58 25.9725 21.58 26.485V41.9037H21.5788Z" fill="black"/>
</svg>
