<svg width="40" height="40" viewBox="0 0 40 40" fill="none" xmlns="http://www.w3.org/2000/svg">
<path d="M32.8834 27.7715C33.7082 26.7505 34.1608 25.479 34.1667 24.1665C34.1667 22.6194 33.5522 21.1357 32.4582 20.0417C31.3642 18.9478 29.8805 18.3332 28.3334 18.3332C26.7863 18.3332 25.3026 18.9478 24.2086 20.0417C23.1147 21.1357 22.5001 22.6194 22.5001 24.1665C22.506 25.479 22.9586 26.7505 23.7834 27.7715C22.2546 28.5562 20.9522 29.7193 20.0001 31.1498C19.048 29.7193 17.7455 28.5562 16.2167 27.7715C17.0415 26.7505 17.4942 25.479 17.5001 24.1665C17.5001 22.6194 16.8855 21.1357 15.7915 20.0417C14.6976 18.9478 13.2138 18.3332 11.6667 18.3332C10.1197 18.3332 8.63592 18.9478 7.54196 20.0417C6.448 21.1357 5.83341 22.6194 5.83341 24.1665C5.83934 25.479 6.29194 26.7505 7.11675 27.7715C5.4777 28.609 4.10158 29.8826 3.13997 31.452C2.17836 33.0215 1.66857 34.8259 1.66675 36.6665C1.66675 37.1085 1.84234 37.5325 2.1549 37.845C2.46746 38.1576 2.89139 38.3332 3.33341 38.3332H36.6667C37.1088 38.3332 37.5327 38.1576 37.8453 37.845C38.1578 37.5325 38.3334 37.1085 38.3334 36.6665C38.3316 34.8259 37.8218 33.0215 36.8602 31.452C35.8986 29.8826 34.5225 28.609 32.8834 27.7715ZM11.6667 21.6665C12.1612 21.6665 12.6445 21.8131 13.0557 22.0878C13.4668 22.3625 13.7872 22.753 13.9764 23.2098C14.1657 23.6666 14.2152 24.1693 14.1187 24.6542C14.0222 25.1392 13.7841 25.5846 13.4345 25.9343C13.0849 26.2839 12.6394 26.522 12.1545 26.6185C11.6695 26.7149 11.1669 26.6654 10.71 26.4762C10.2532 26.287 9.86278 25.9665 9.58807 25.5554C9.31337 25.1443 9.16675 24.661 9.16675 24.1665C9.16675 23.5035 9.43014 22.8676 9.89898 22.3987C10.3678 21.9299 11.0037 21.6665 11.6667 21.6665ZM5.21008 34.9998C5.57841 33.5673 6.41268 32.2979 7.58158 31.3915C8.75048 30.4852 10.1876 29.9933 11.6667 29.9933C13.1459 29.9933 14.583 30.4852 15.7519 31.3915C16.9208 32.2979 17.7551 33.5673 18.1234 34.9998H5.21008ZM28.3334 21.6665C28.8279 21.6665 29.3112 21.8131 29.7223 22.0878C30.1335 22.3625 30.4539 22.753 30.6431 23.2098C30.8323 23.6666 30.8818 24.1693 30.7854 24.6542C30.6889 25.1392 30.4508 25.5846 30.1012 25.9343C29.7515 26.2839 29.3061 26.522 28.8211 26.6185C28.3362 26.7149 27.8335 26.6654 27.3767 26.4762C26.9199 26.287 26.5294 25.9665 26.2547 25.5554C25.98 25.1443 25.8334 24.661 25.8334 24.1665C25.8334 23.5035 26.0968 22.8676 26.5656 22.3987C27.0345 21.9299 27.6704 21.6665 28.3334 21.6665ZM21.8767 34.9998C22.2451 33.5673 23.0793 32.2979 24.2482 31.3915C25.4171 30.4852 26.8543 29.9933 28.3334 29.9933C29.8125 29.9933 31.2497 30.4852 32.4186 31.3915C33.5875 32.2979 34.4218 33.5673 34.7901 34.9998H21.8767ZM10.0001 3.33317V13.3332C10.0001 13.7752 10.1757 14.1991 10.4882 14.5117C10.8008 14.8242 11.2247 14.9998 11.6667 14.9998H16.4417L18.7201 17.7348C18.8765 17.9224 19.0722 18.0733 19.2934 18.1769C19.5146 18.2804 19.7558 18.3341 20.0001 18.3341C20.2443 18.3341 20.4856 18.2804 20.7067 18.1769C20.9279 18.0733 21.1237 17.9224 21.2801 17.7348L23.5584 14.9998H28.3334C28.7754 14.9998 29.1994 14.8242 29.5119 14.5117C29.8245 14.1991 30.0001 13.7752 30.0001 13.3332V3.33317C30.0001 2.89114 29.8245 2.46722 29.5119 2.15466C29.1994 1.8421 28.7754 1.6665 28.3334 1.6665H11.6667C11.2247 1.6665 10.8008 1.8421 10.4882 2.15466C10.1757 2.46722 10.0001 2.89114 10.0001 3.33317ZM13.3334 4.99984H26.6667V11.6665H22.7784C22.534 11.6661 22.2924 11.7196 22.071 11.823C21.8495 11.9264 21.6534 12.0772 21.4967 12.2648L20.0001 14.0632L18.5001 12.2648C18.3438 12.0777 18.1483 11.9271 17.9274 11.8237C17.7065 11.7203 17.4656 11.6666 17.2217 11.6665H13.3334V4.99984Z" fill="white"/>
</svg>
