<svg width="40" height="40" viewBox="0 0 40 40" fill="none" xmlns="http://www.w3.org/2000/svg">
<path d="M19.1716 16.3474L13.7559 15.691L10.2653 13.3709C10.5759 13.4473 11.4336 13.6968 12.3498 14.0553C12.2415 13.6819 12.0424 13.337 11.7656 13.0538C11.3214 12.5992 10.714 12.3411 10.0786 12.3366L7.88675 12.3209C6.56174 12.3113 5.4833 13.3859 5.48697 14.7101L5.50908 22.7915C5.5108 23.4254 5.7651 24.0324 6.21557 24.4784C6.53338 24.7929 6.93049 25.0086 7.35932 25.1069H4.36431L2.33368 14.7767C2.20821 14.1384 1.58899 13.7228 0.95086 13.8481C0.312576 13.9736 -0.103128 14.5927 0.0223408 15.231L2.23985 26.512C2.34844 27.0644 2.83266 27.4626 3.39556 27.4626H6.60393V31.5424L2.9672 33.534C2.58688 33.7424 2.44735 34.2195 2.65563 34.5999C2.86391 34.9802 3.34095 35.1198 3.7215 34.9114L7.38924 32.903L11.057 34.9114C11.4375 35.1199 11.9147 34.98 12.1229 34.5999C12.3312 34.2195 12.1917 33.7424 11.8113 33.534L8.17448 31.5424V27.4626H11.6403C12.2907 27.4626 12.8181 26.9353 12.8181 26.2848C12.8181 25.8908 12.624 25.5429 12.3268 25.3291L13.4226 25.5846V33.327C13.4226 34.27 14.1871 35.0345 15.1301 35.0345C16.073 35.0345 16.8375 34.27 16.8375 33.327V24.2293C16.8375 23.4356 16.2907 22.7466 15.5177 22.5665L12.3327 21.8239L12.3727 19.3718L9.11316 16.0221L12.4619 18.2478C12.6468 18.3707 12.8579 18.4487 13.0783 18.4753L18.8293 19.1725C19.612 19.267 20.3188 18.709 20.413 17.9311C20.5075 17.1511 19.9518 16.4421 19.1716 16.3474Z" fill="white"/>
<path d="M10.8352 11.2461C12.5696 11.2461 13.9756 9.84013 13.9756 8.10573C13.9756 6.37134 12.5696 4.96533 10.8352 4.96533C9.10083 4.96533 7.69482 6.37134 7.69482 8.10573C7.69482 9.84013 9.10083 11.2461 10.8352 11.2461Z" fill="white"/>
<path d="M38.927 20.0342H17.8952C17.3025 20.0342 16.822 20.5146 16.822 21.1073C16.822 21.7 17.3025 22.1804 17.8952 22.1804H18.417V33.8577C18.417 34.5074 18.9437 35.0342 19.5936 35.0342H19.5983C20.2481 35.0342 20.7748 34.5075 20.7748 33.8577V22.1804H36.1165V33.8577C36.1165 34.5074 36.6432 35.0342 37.293 35.0342H37.2977C37.9475 35.0342 38.4743 34.5075 38.4743 33.8577V22.1804H38.9268C39.5195 22.1804 39.9999 21.7 39.9999 21.1073C40.0002 20.5146 39.5197 20.0342 38.927 20.0342Z" fill="white"/>
<path d="M31.6061 17.4266H30.0054V11.9535L31.3528 8.65562C31.5168 8.25421 31.3243 7.79577 30.9229 7.63179C30.5215 7.46773 30.063 7.66031 29.899 8.06163C28.7104 10.9706 27.9821 12.7532 26.8053 15.6332C26.6414 16.0347 26.8339 16.4932 27.2353 16.6571C27.6369 16.8212 28.0952 16.6285 28.2591 16.2273L28.435 15.797V18.2118C28.435 18.6454 28.7864 18.9969 29.2201 18.9969H31.606C32.0397 18.9969 32.3911 18.6453 32.3911 18.2118C32.3912 17.7781 32.0397 17.4266 31.6061 17.4266Z" fill="white"/>
<path d="M25.3903 17.5195H22.3696C21.936 17.5195 21.5845 17.871 21.5845 18.3047C21.5845 18.7384 21.936 19.0898 22.3696 19.0898H25.3903C25.824 19.0898 26.1755 18.7384 26.1755 18.3047C26.1755 17.871 25.824 17.5195 25.3903 17.5195Z" fill="white"/>
</svg>
