<svg width="50" height="50" viewBox="0 0 50 50" fill="none" xmlns="http://www.w3.org/2000/svg">
<path d="M35.1363 42.9998C34.6988 42.9998 34.3425 42.6448 34.3425 42.2073V30.1623C34.3425 25.8073 32.1075 25.8073 31.265 25.8073C28.9175 25.8073 27.7288 27.2723 27.7288 30.1623V42.2086C27.7288 42.6461 27.3738 43.0011 26.9363 43.0011H20.125C19.6875 43.0011 19.3325 42.6461 19.3325 42.2086V19.2623C19.3325 18.8248 19.6875 18.4698 20.125 18.4698H26.9375C27.375 18.4698 27.73 18.8248 27.73 19.2623V20.1173L28.14 19.7786C29.7525 18.4448 31.6763 17.7686 33.8575 17.7686C36.5538 17.7686 38.8238 18.6298 40.4213 20.2611C42.1088 21.9836 43 24.5486 43 27.6773V42.2086C43 42.6461 42.6438 43.0011 42.2063 43.0011H35.1363V42.9998ZM31.2663 24.2198C33.0088 24.2198 35.9313 24.9923 35.9313 30.1623V41.4148H41.4125V27.6773C41.4125 22.3886 38.6588 19.3561 33.8575 19.3561C29.57 19.3561 27.7125 22.5936 27.635 22.7311C27.495 22.9848 27.23 23.1423 26.9413 23.1423C26.8763 23.1423 26.81 23.1323 26.7425 23.1161C26.39 23.0273 26.1438 22.7136 26.1438 22.3536V20.0573H20.9188V41.4161H26.1438V30.1623C26.1438 26.4411 28.0588 24.2198 31.2663 24.2198Z" fill="black"/>
<path d="M8.475 43.0002C8.0375 43.0002 7.68125 42.6452 7.68125 42.2077V19.2627C7.68125 18.8252 8.0375 18.4702 8.475 18.4702H15.5813C16.0188 18.4702 16.3738 18.8252 16.3738 19.2627V42.2077C16.3738 42.6452 16.0188 43.0002 15.5813 43.0002H8.475ZM9.26875 41.4152H14.7875V20.0565H9.26875V41.4152Z" fill="black"/>
<path d="M11.9963 17.0487C9.24125 17.0487 7 14.795 7 12.025C7 9.25375 9.24125 7 11.9963 7C14.7475 7 16.9875 9.255 16.9875 12.0263C16.9875 14.795 14.7475 17.0487 11.9963 17.0487ZM11.9963 8.5825C10.1163 8.5825 8.5875 10.1262 8.5875 12.025C8.5875 13.9225 10.1163 15.4638 11.9963 15.4638C13.875 15.4638 15.4025 13.9225 15.4025 12.025C15.4012 10.1275 13.875 8.5825 11.9963 8.5825Z" fill="black"/>
</svg>
