<svg width="40" height="40" viewBox="0 0 40 40" fill="none" xmlns="http://www.w3.org/2000/svg">
<path d="M19.1717 16.3474L13.756 15.691L10.2654 13.3709C10.576 13.4473 11.4337 13.6968 12.3499 14.0553C12.2415 13.6819 12.0425 13.337 11.7657 13.0538C11.3214 12.5992 10.7141 12.3411 10.0786 12.3366L7.88682 12.3209C6.56181 12.3113 5.48337 13.3859 5.48704 14.7101L5.50915 22.7915C5.51087 23.4254 5.76517 24.0324 6.21564 24.4784C6.53345 24.7929 6.93056 25.0086 7.35939 25.1069H4.36438L2.33375 14.7767C2.20828 14.1384 1.58906 13.7228 0.950929 13.8481C0.312645 13.9736 -0.10306 14.5927 0.0224095 15.231L2.23992 26.512C2.34851 27.0644 2.83273 27.4626 3.39563 27.4626H6.604V31.5424L2.96726 33.534C2.58695 33.7424 2.44742 34.2195 2.6557 34.5999C2.86398 34.9802 3.34102 35.1198 3.72156 34.9114L7.38931 32.903L11.0571 34.9114C11.4376 35.1199 11.9147 34.98 12.1229 34.5999C12.3313 34.2195 12.1918 33.7424 11.8114 33.534L8.17455 31.5424V27.4626H11.6403C12.2908 27.4626 12.8182 26.9353 12.8182 26.2848C12.8182 25.8908 12.624 25.5429 12.3269 25.3291L13.4227 25.5846V33.327C13.4227 34.27 14.1872 35.0345 15.1301 35.0345C16.0731 35.0345 16.8376 34.27 16.8376 33.327V24.2293C16.8376 23.4356 16.2908 22.7466 15.5178 22.5665L12.3328 21.8239L12.3728 19.3718L9.11323 16.0221L12.462 18.2478C12.6469 18.3707 12.8579 18.4487 13.0784 18.4753L18.8294 19.1725C19.6121 19.267 20.3188 18.709 20.4131 17.9311C20.5076 17.1511 19.9519 16.4421 19.1717 16.3474Z" fill="white"/>
<path d="M10.8353 11.2461C12.5697 11.2461 13.9757 9.84013 13.9757 8.10573C13.9757 6.37134 12.5697 4.96533 10.8353 4.96533C9.10088 4.96533 7.69488 6.37134 7.69488 8.10573C7.69488 9.84013 9.10088 11.2461 10.8353 11.2461Z" fill="white"/>
<path d="M38.927 20.0342H17.8951C17.3024 20.0342 16.8219 20.5146 16.8219 21.1073C16.8219 21.7 17.3024 22.1804 17.8951 22.1804H18.417V33.8577C18.417 34.5074 18.9437 35.0342 19.5935 35.0342H19.5982C20.248 35.0342 20.7748 34.5075 20.7748 33.8577V22.1804H36.1164V33.8577C36.1164 34.5074 36.6431 35.0342 37.293 35.0342H37.2976C37.9474 35.0342 38.4742 34.5075 38.4742 33.8577V22.1804H38.9267C39.5194 22.1804 39.9998 21.7 39.9998 21.1073C40.0001 20.5146 39.5196 20.0342 38.927 20.0342Z" fill="white"/>
<path d="M31.606 17.4266H30.0053V11.9535L31.3527 8.65562C31.5167 8.25421 31.3243 7.79577 30.9228 7.63179C30.5214 7.46773 30.0629 7.66031 29.8989 8.06163C28.7103 10.9706 27.9821 12.7532 26.8053 15.6332C26.6413 16.0347 26.8338 16.4932 27.2352 16.6571C27.6368 16.8212 28.0951 16.6285 28.259 16.2273L28.4349 15.797V18.2118C28.4349 18.6454 28.7864 18.9969 29.22 18.9969H31.6059C32.0396 18.9969 32.3911 18.6453 32.3911 18.2118C32.3911 17.7781 32.0396 17.4266 31.606 17.4266Z" fill="white"/>
<path d="M25.3903 17.5195H22.3696C21.9359 17.5195 21.5845 17.871 21.5845 18.3047C21.5845 18.7384 21.9359 19.0898 22.3696 19.0898H25.3903C25.824 19.0898 26.1755 18.7384 26.1755 18.3047C26.1755 17.871 25.824 17.5195 25.3903 17.5195Z" fill="white"/>
</svg>
