<svg width="42" height="37" viewBox="0 0 42 37" fill="none" xmlns="http://www.w3.org/2000/svg">
<path d="M40.6574 0.790347C40.3346 0.511379 39.9415 0.326127 39.5208 0.254678C39.1002 0.183229 38.668 0.228311 38.2711 0.385035L2.22482 14.5461C1.75361 14.7313 1.35501 15.064 1.08867 15.4945C0.822324 15.9251 0.702561 16.4303 0.7473 16.9346C0.792038 17.4388 0.998872 17.9151 1.33685 18.292C1.67483 18.6689 2.12578 18.9263 2.62222 19.0256L12.4062 20.9825V33.0593C12.4014 33.5239 12.5369 33.9791 12.795 34.3655C13.0532 34.7518 13.4219 35.0512 13.8531 35.2245C14.1419 35.3454 14.4518 35.4081 14.7649 35.4089C15.0709 35.408 15.3736 35.3462 15.6555 35.2274C15.9375 35.1085 16.193 34.9348 16.4073 34.7164L21.9925 29.1312L30.2334 36.3832C30.658 36.7603 31.2061 36.9689 31.774 36.9695C32.0209 36.9692 32.2663 36.9303 32.5011 36.8541C32.8885 36.7313 33.2368 36.509 33.5114 36.2095C33.7861 35.91 33.9773 35.5438 34.0662 35.1472L41.4126 3.09003C41.5085 2.67429 41.4889 2.24023 41.3558 1.83486C41.2226 1.4295 40.9811 1.06828 40.6574 0.790347ZM2.30369 16.7964C2.28426 16.6277 2.32231 16.4573 2.41169 16.3128C2.50108 16.1683 2.63657 16.0582 2.79627 16.0003L35.8383 3.01942L13.0063 19.5091L2.92863 17.4936C2.76123 17.4646 2.60848 17.38 2.49508 17.2535C2.38168 17.127 2.31425 16.966 2.30369 16.7964ZM15.3024 33.6116C15.1931 33.7209 15.0539 33.7953 14.9024 33.8254C14.7508 33.8556 14.5938 33.8401 14.451 33.781C14.3083 33.7219 14.1863 33.6217 14.1004 33.4933C14.0146 33.3648 13.9688 33.2138 13.9687 33.0593V22.0702L20.8172 28.0969L15.3024 33.6116ZM39.8896 2.74099L32.5432 34.7982C32.5129 34.9301 32.4489 35.0519 32.3575 35.1516C32.266 35.2514 32.1502 35.3256 32.0214 35.3672C31.8926 35.4087 31.7552 35.4161 31.6227 35.3886C31.4902 35.361 31.3671 35.2996 31.2655 35.2102L14.4385 20.4023L39.7634 2.11224C39.83 2.20098 39.8759 2.30351 39.8977 2.4123C39.9196 2.5211 39.9168 2.63341 39.8896 2.74099Z" fill="black"/>
</svg>
