<svg width="40" height="40" viewBox="0 0 40 40" fill="none" xmlns="http://www.w3.org/2000/svg">
<g clip-path="url(#clip0_223_1712)">
<path d="M8.49243 30L13.8257 35.3333H17.597L12.2637 30H8.49243Z" fill="white"/>
<path d="M2.83569 30L8.16833 35.3333H11.9403L6.60701 30H2.83569Z" fill="white"/>
<path d="M14.6667 25.5338L24.6274 19.9999L14.6667 14.4658V25.5338Z" fill="white"/>
<path d="M14.1494 30L19.482 35.3333H23.2541L17.9207 30H14.1494Z" fill="white"/>
<path d="M39.9998 11.333H0V28.6663H39.9998V11.333ZM26.3239 20.5823L14.3239 27.2489C14.2232 27.3049 14.1113 27.3329 13.9999 27.3329C13.8833 27.3329 13.7666 27.3022 13.662 27.2408C13.4586 27.1215 13.3333 26.9022 13.3333 26.6662V13.333C13.3333 13.0964 13.4586 12.8777 13.662 12.7583C13.866 12.6383 14.1167 12.6357 14.324 12.7503L26.324 19.417C26.5353 19.5343 26.6666 19.7577 26.6666 19.9996C26.6665 20.2416 26.5352 20.465 26.3239 20.5823Z" fill="white"/>
<path d="M31.1196 30L36.453 35.3333H39.3336C39.5756 35.3333 39.7783 35.1973 39.8949 35.004L34.8909 30.0001H31.1196V30Z" fill="white"/>
<path d="M19.8059 30L25.1392 35.3333H28.9106L23.5772 30H19.8059Z" fill="white"/>
<path d="M25.4629 30L30.7962 35.3333H34.5675L29.2342 30H25.4629Z" fill="white"/>
<path d="M40.0001 33.2235V29.9995H36.7761L40.0001 33.2235Z" fill="white"/>
<path d="M27.5773 9.99976L22.244 4.6665H18.4727L23.806 9.99976H27.5773Z" fill="white"/>
<path d="M0.0478318 5.09766C0.0198632 5.17102 0.000488281 5.24969 0.000488281 5.33297V9.99959H4.94977L0.0478318 5.09766Z" fill="white"/>
<path d="M38.8906 9.99976L33.5573 4.6665H29.7866L35.1193 9.99976H38.8906Z" fill="white"/>
<path d="M39.3332 4.6665H35.4426L40 9.22383V5.33314C40 4.96447 39.7013 4.6665 39.3332 4.6665Z" fill="white"/>
<path d="M0 30V34.6666C0 35.0353 0.298671 35.3333 0.666638 35.3333H6.28326L0.949996 30H0Z" fill="white"/>
<path d="M33.234 9.99976L27.9013 4.6665H24.1294L29.4627 9.99976H33.234Z" fill="white"/>
<path d="M21.9206 9.99976L16.5872 4.6665H12.8159L18.1493 9.99976H21.9206Z" fill="white"/>
<path d="M10.6066 9.99976L5.27334 4.6665H1.50195L6.83529 9.99976H10.6066Z" fill="white"/>
<path d="M16.2636 9.99976L10.9302 4.6665H7.15894L12.4923 9.99976H16.2636Z" fill="white"/>
</g>
<defs>
<clipPath id="clip0_223_1712">
<rect width="40" height="40" fill="white"/>
</clipPath>
</defs>
</svg>
