<svg width="40" height="40" viewBox="0 0 40 40" fill="none" xmlns="http://www.w3.org/2000/svg">
<g clip-path="url(#clip0_223_892)">
<path d="M8.49246 30L13.8257 35.3333H17.597L12.2638 30H8.49246Z" fill="white"/>
<path d="M2.83561 30L8.16824 35.3333H11.9402L6.60692 30H2.83561Z" fill="white"/>
<path d="M14.6667 25.5338L24.6274 19.9999L14.6667 14.4658V25.5338Z" fill="white"/>
<path d="M14.1493 30L19.4819 35.3333H23.254L17.9206 30H14.1493Z" fill="white"/>
<path d="M39.9998 11.333H-7.62939e-06V28.6663H39.9998V11.333ZM26.3239 20.5823L14.3239 27.2489C14.2232 27.3049 14.1113 27.3329 13.9999 27.3329C13.8833 27.3329 13.7666 27.3022 13.662 27.2408C13.4586 27.1215 13.3333 26.9022 13.3333 26.6662V13.333C13.3333 13.0964 13.4586 12.8777 13.662 12.7583C13.866 12.6383 14.1167 12.6357 14.324 12.7503L26.324 19.417C26.5353 19.5343 26.6666 19.7577 26.6666 19.9996C26.6665 20.2416 26.5352 20.465 26.3239 20.5823Z" fill="white"/>
<path d="M31.1196 30L36.453 35.3333H39.3336C39.5756 35.3333 39.7783 35.1973 39.8949 35.004L34.891 30.0001H31.1196V30Z" fill="white"/>
<path d="M19.8059 30L25.1392 35.3333H28.9105L23.5772 30H19.8059Z" fill="white"/>
<path d="M25.4628 30L30.796 35.3333H34.5674L29.2341 30H25.4628Z" fill="white"/>
<path d="M40 33.2235V29.9995H36.776L40 33.2235Z" fill="white"/>
<path d="M27.5774 9.99976L22.2441 4.6665H18.4727L23.8061 9.99976H27.5774Z" fill="white"/>
<path d="M0.0477327 5.09766C0.019764 5.17102 0.000389099 5.24969 0.000389099 5.33297V9.99959H4.94967L0.0477327 5.09766Z" fill="white"/>
<path d="M38.8906 9.99976L33.5574 4.6665H29.7867L35.1193 9.99976H38.8906Z" fill="white"/>
<path d="M39.3333 4.6665H35.4427L40 9.22383V5.33314C40 4.96447 39.7013 4.6665 39.3333 4.6665Z" fill="white"/>
<path d="M-7.62939e-06 30V34.6666C-7.62939e-06 35.0353 0.298663 35.3333 0.66663 35.3333H6.28325L0.949989 30H-7.62939e-06Z" fill="white"/>
<path d="M33.2339 9.99976L27.9012 4.6665H24.1293L29.4625 9.99976H33.2339Z" fill="white"/>
<path d="M21.9205 9.99976L16.5871 4.6665H12.8158L18.1491 9.99976H21.9205Z" fill="white"/>
<path d="M10.6067 9.99976L5.27341 4.6665H1.50202L6.83536 9.99976H10.6067Z" fill="white"/>
<path d="M16.2636 9.99976L10.9303 4.6665H7.15895L12.4923 9.99976H16.2636Z" fill="white"/>
</g>
<defs>
<clipPath id="clip0_223_892">
<rect width="40" height="40" fill="white"/>
</clipPath>
</defs>
</svg>
