<svg width="50" height="50" viewBox="0 0 50 50" fill="none" xmlns="http://www.w3.org/2000/svg">
<g clip-path="url(#clip0_223_1281)">
<path d="M40.5208 8.43759C37.4822 5.39011 33.6086 3.31155 29.3893 2.46448C25.1699 1.61741 20.7942 2.03984 16.8148 3.6784C12.8355 5.31697 9.431 8.09815 7.03148 11.6706C4.63197 15.2431 3.34506 19.4466 3.33333 23.7501C3.28587 27.5613 4.29544 31.3112 6.25 34.5834L3.125 45.8334L14.6875 42.8126C17.8778 44.5624 21.4657 45.4594 25.1042 45.4168C29.3959 45.4342 33.5962 44.1767 37.1723 41.8036C40.7483 39.4306 43.5391 36.0489 45.1906 32.0876C46.842 28.1263 47.2799 23.7637 46.4485 19.5532C45.6171 15.3427 43.554 11.4739 40.5208 8.43759ZM25.1042 41.7709C21.5901 41.7962 18.147 40.7814 15.2083 38.8543L8.33333 40.7293L10.2083 34.0626C8.1376 31.0192 7.01401 27.431 6.97917 23.7501C6.95854 20.1609 8.00399 16.6465 9.98301 13.6522C11.962 10.6578 14.7855 8.31851 18.0955 6.93069C21.4056 5.54286 25.0532 5.16903 28.5759 5.85658C32.0986 6.54413 35.3379 8.2621 37.8832 10.7927C40.4284 13.3234 42.1651 16.5527 42.8729 20.0714C43.5807 23.5901 43.2279 27.2398 41.8592 30.5578C40.4905 33.8758 38.1675 36.7127 35.1846 38.7089C32.2018 40.7052 28.6934 41.7709 25.1042 41.7709Z" fill="black"/>
<path d="M35 28.3335C33.7917 27.6586 32.5388 27.0669 31.25 26.5627C30.8333 26.3543 30.4167 26.2502 30.1042 26.771C29.7917 27.2918 28.6458 28.5418 28.3333 28.9585C28.1924 29.1198 27.9946 29.2207 27.7813 29.2401C27.5679 29.2595 27.3553 29.1959 27.1875 29.0627C25.5912 28.4045 24.1134 27.4896 22.8125 26.3543C21.6178 25.2679 20.5988 24.0029 19.7917 22.6043C19.734 22.5233 19.6934 22.4312 19.6726 22.3339C19.6518 22.2366 19.6512 22.1361 19.6707 22.0385C19.6902 21.9409 19.7295 21.8483 19.7861 21.7665C19.8428 21.6847 19.9155 21.6153 20 21.5627L20.8333 20.521C21.0438 20.268 21.219 19.9877 21.3542 19.6877C21.4364 19.5451 21.4798 19.3835 21.4798 19.2189C21.4798 19.0544 21.4364 18.8927 21.3542 18.7502C21.1458 18.4377 20.1042 15.8335 19.6875 14.6877C19.2708 13.5418 18.75 13.7502 18.4375 13.7502H17.3958C17.1121 13.746 16.8315 13.81 16.5778 13.9369C16.324 14.0638 16.1044 14.2498 15.9375 14.4793C15.316 15.0431 14.826 15.7365 14.502 16.5104C14.178 17.2844 14.028 18.1201 14.0625 18.9585C14.2441 21.0029 15.0027 22.9536 16.25 24.5835C16.5625 24.896 20.1042 30.4168 25.5208 32.7085C26.5227 33.1913 27.5694 33.575 28.6458 33.8543C29.7536 34.2236 30.939 34.2955 32.0833 34.0627C33.125 33.9585 35.3125 32.8127 35.7292 31.5627C36.1458 30.3127 36.25 29.1668 36.0417 28.9585C35.7604 28.656 35.3993 28.4393 35 28.3335Z" fill="black"/>
</g>
<defs>
<clipPath id="clip0_223_1281">
<rect width="50" height="50" fill="white"/>
</clipPath>
</defs>
</svg>
