<svg width="50" height="50" viewBox="0 0 50 50" fill="none" xmlns="http://www.w3.org/2000/svg">
<g clip-path="url(#clip0_223_1595)">
<path d="M33.418 7.74834C36 7.74834 38.3311 8.80478 39.9733 10.5009C42.0163 10.1056 43.9421 9.38525 45.6726 8.3876C45.003 10.4205 43.5788 12.1259 41.7265 13.2048C43.539 12.9915 45.2742 12.5259 46.8843 11.8298C45.6773 13.5751 44.1578 15.1118 42.4031 16.3399C42.4195 16.7126 42.4289 17.0892 42.4289 17.4641C42.4289 28.9743 33.3953 42.25 16.8766 42.25C11.8063 42.25 7.0836 40.8032 3.11177 38.3329C3.82232 38.4155 4.53707 38.4567 5.2524 38.4562C9.45943 38.4562 13.3336 37.0648 16.4078 34.7258C12.4758 34.6586 9.15704 32.1375 8.01876 28.6789C8.57624 28.7833 9.1422 28.8359 9.70938 28.8359C10.5258 28.8359 11.3211 28.7305 12.0727 28.5305C7.96485 27.7328 4.86876 24.2117 4.86876 19.989V19.8773C6.08048 20.5304 7.46407 20.9226 8.93829 20.9679C6.52735 19.4038 4.94219 16.7414 4.94219 13.7187C4.94219 12.121 5.38599 10.6241 6.15865 9.34209C10.5868 14.6093 17.204 18.078 24.6688 18.4429C24.5149 17.8069 24.4352 17.1351 24.4352 16.4593C24.4352 11.6476 28.4563 7.74834 33.418 7.74834ZM46.8842 11.8314H46.892H46.8842ZM33.4178 4.62354C27.2819 4.62354 22.1984 9.1064 21.4156 14.8986C16.3953 13.89 11.8296 11.2322 8.54918 7.33296C8.25592 6.98411 7.8899 6.70363 7.47679 6.51118C7.06367 6.31874 6.61346 6.219 6.15772 6.21895C6.07588 6.21897 5.99406 6.22209 5.91246 6.22832C5.41712 6.26799 4.93834 6.425 4.51571 6.68638C4.09308 6.94776 3.73874 7.30599 3.48199 7.73145C2.39252 9.53916 1.81688 11.6099 1.8171 13.7205C1.8171 15.1291 2.07017 16.501 2.54991 17.7838C2.03897 18.3518 1.74444 19.0947 1.74444 19.8791V19.9908C1.74444 23.0518 2.9546 25.8924 4.96397 28.0213C4.84835 28.5572 4.87413 29.1182 5.05069 29.6557C5.74371 31.7642 7.00543 33.5814 8.64137 34.9657C7.54288 35.2103 6.40933 35.3337 5.25225 35.3337C4.64053 35.3337 4.04522 35.3001 3.48194 35.2313C3.35694 35.2157 3.2335 35.2103 3.10928 35.2103C1.79678 35.2103 0.605379 36.0376 0.163191 37.2993C-0.321965 38.6821 0.216365 40.2149 1.46007 40.9892C6.07574 43.8611 11.4069 45.3774 16.8757 45.3774C34.6507 45.3774 45.3429 31.4626 45.5507 17.8704C47.0093 16.6637 48.2978 15.265 49.3812 13.7126C49.7926 13.1724 50.0149 12.5119 50.014 11.8329C50.014 10.7696 49.482 9.82978 48.6718 9.26489C49.0226 8.06255 48.6226 6.76099 47.646 5.96567C47.0757 5.50161 46.3765 5.26567 45.6733 5.26567C45.1253 5.26516 44.5869 5.40934 44.1124 5.68364C43.0796 6.279 41.9749 6.7501 40.8116 7.08921C38.7069 5.50561 36.0975 4.62358 33.4178 4.62354Z" fill="black"/>
</g>
<defs>
<clipPath id="clip0_223_1595">
<rect width="50" height="50" fill="white"/>
</clipPath>
</defs>
</svg>
